<svg xmlns:xlink="http://www.w3.org/1999/xlink" xmlns="http://www.w3.org/2000/svg" width="24" height="24" viewBox="0 0 24 24" fill="none"><path d="M4.16176 15.9368C4 16.3273 4 16.8223 4 17.8125C4 18.8026 4 19.2977 4.16176 19.6882C4.37743 20.2089 4.79136 20.6226 5.31205 20.8382C5.70257 21 6.19764 21 7.18777 21C8.1779 21 8.67272 21 9.06323 20.8382C9.58392 20.6226 9.9975 20.2089 10.2132 19.6882C10.3749 19.2977 10.3749 18.8026 10.3749 17.8125C10.3749 16.8224 10.3749 16.3273 10.2132 15.9368C9.9975 15.4161 9.58392 15.0024 9.06323 14.7867C8.67272 14.625 8.1779 14.625 7.18777 14.625C6.19763 14.625 5.70257 14.625 5.31205 14.7867C4.79136 15.0024 4.37743 15.4161 4.16176 15.9368Z" stroke="#6B6B6B" stroke-width="2px" stroke-linecap="round" stroke-linejoin="round" fill="none"></path><path d="M14.7868 5.31178C14.6251 5.70229 14.6251 6.19736 14.6251 7.18748C14.6251 8.17761 14.6251 8.67268 14.7868 9.0632C15.0025 9.58388 15.4164 9.99758 15.9371 10.2133C16.3276 10.375 16.8227 10.375 17.8128 10.375C18.803 10.375 19.2978 10.375 19.6883 10.2133C20.209 9.99758 20.6226 9.58388 20.8382 9.0632C21 8.67268 21 8.17762 21 7.1875C21 6.19737 21 5.70229 20.8382 5.31178C20.6226 4.7911 20.209 4.37743 19.6883 4.16176C19.2978 4 18.803 4 17.8128 4C16.8227 4 16.3276 4 15.9371 4.16176C15.4164 4.37743 15.0025 4.7911 14.7868 5.31178Z" stroke="#6B6B6B" stroke-width="2px" stroke-linecap="round" stroke-linejoin="round" fill="none"></path><path d="M4.16176 5.31178C4 5.70229 4 6.19736 4 7.18748C4 8.17761 4 8.67268 4.16176 9.0632C4.37743 9.58388 4.79136 9.99758 5.31205 10.2133C5.70257 10.375 6.19764 10.375 7.18777 10.375C8.1779 10.375 8.67272 10.375 9.06323 10.2133C9.58392 9.99758 9.9975 9.58388 10.2132 9.0632C10.3749 8.67268 10.3749 8.17762 10.3749 7.1875C10.3749 6.19737 10.3749 5.70229 10.2132 5.31178C9.9975 4.7911 9.58392 4.37743 9.06323 4.16176C8.67272 4 8.1779 4 7.18777 4C6.19763 4 5.70257 4 5.31205 4.16176C4.79136 4.37743 4.37743 4.7911 4.16176 5.31178Z" stroke="#6B6B6B" stroke-width="2px" stroke-linecap="round" stroke-linejoin="round" fill="none"></path><path d="M14.7868 15.9368C14.6251 16.3273 14.6251 16.8223 14.6251 17.8125C14.6251 18.8026 14.6251 19.2977 14.7868 19.6882C15.0025 20.2089 15.4164 20.6226 15.9371 20.8382C16.3276 21 16.8227 21 17.8128 21C18.803 21 19.2978 21 19.6883 20.8382C20.209 20.6226 20.6226 20.2089 20.8382 19.6882C21 19.2977 21 18.8026 21 17.8125C21 16.8224 21 16.3273 20.8382 15.9368C20.6226 15.4161 20.209 15.0024 19.6883 14.7867C19.2978 14.625 18.803 14.625 17.8128 14.625C16.8227 14.625 16.3276 14.625 15.9371 14.7867C15.4164 15.0024 15.0025 15.4161 14.7868 15.9368Z" stroke="#6B6B6B" stroke-width="2px" stroke-linecap="round" stroke-linejoin="round" fill="none"></path></svg>