<svg xmlns:xlink="http://www.w3.org/1999/xlink" width="23" height="12" viewBox="0 0 23 12" fill="none" xmlns="http://www.w3.org/2000/svg"><g id="Isolation_Mode" clip-path="url(#clip0_10077_41937)" fill="none"><path id="Vector" d="M8.19875 0.75H17.6988C18.0988 0.75 18.4188 1.07 18.4188 1.47V8.65C18.4188 9.05 18.0988 9.37 17.6988 9.37H16.0188C16.0188 8.38 15.2187 7.58 14.2287 7.58C13.2387 7.58 12.4387 8.38 12.4387 9.37H8.18875C7.78875 9.37 7.46875 9.05 7.46875 8.65V1.47C7.46875 1.07 7.79875 0.75 8.18875 0.75H8.19875Z" stroke="#E10A0A" stroke-width="1.5px" stroke-linecap="round" stroke-linejoin="round" fill="none"></path><path id="Vector_2" d="M1.36 5.17031L3.02 2.42031C3.15 2.20031 3.38 2.07031 3.64 2.07031H7.48V8.66031C7.48 9.06031 7.16 9.38031 6.76 9.38031H6.1C6.03 8.45031 5.26 7.72031 4.32 7.72031C3.38 7.72031 2.61 8.45031 2.54 9.38031H1.97C1.57 9.38031 1.25 9.06031 1.25 8.66031V5.55031C1.25 5.42031 1.29 5.29031 1.36 5.18031V5.17031Z" stroke="#E10A0A" stroke-width="1.5px" stroke-linecap="round" stroke-linejoin="round" fill="none"></path><path id="Vector_3" d="M19.7013 4.08984H14.0312" stroke="#E10A0A" stroke-linecap="round" stroke-linejoin="round" fill="none"></path><path id="Vector_4" d="M21.6895 6.07812H16.0195" stroke="#E10A0A" stroke-linecap="round" stroke-linejoin="round" fill="none"></path><path id="Vector_5" d="M4.77891 3.53906V5.52906H2.87891" stroke="#E10A0A" stroke-linecap="round" stroke-linejoin="round" fill="none"></path><path id="Vector_6" d="M6.11125 9.37891C6.11125 10.3689 5.31125 11.1689 4.32125 11.1689C3.33125 11.1689 2.53125 10.3689 2.53125 9.37891" stroke="#E10A0A" stroke-width="1.5px" stroke-linecap="round" stroke-linejoin="round" fill="none"></path><path id="Vector_7" d="M16.0214 9.37891C16.0214 10.3689 15.2214 11.1689 14.2314 11.1689C13.2414 11.1689 12.4414 10.3689 12.4414 9.37891" stroke="#E10A0A" stroke-width="1.5px" stroke-linecap="round" stroke-linejoin="round" fill="none"></path></g><defs><clipPath id="clip0_10077_41937"><rect width="21.69" height="11.91" fill="white" transform="translate(0.5)"></rect></clipPath></defs></svg>