<svg xmlns:xlink="http://www.w3.org/1999/xlink" width="27" height="28" viewBox="0 0 27 28" fill="none" xmlns="http://www.w3.org/2000/svg"><g id="g1" fill="none"><path id="path41-1" d="M13.2619 18.8966C15.9533 18.8966 18.1352 16.7133 18.1352 14.0201C18.1352 11.3268 15.9533 9.14355 13.2619 9.14355C10.5705 9.14355 8.38867 11.3268 8.38867 14.0201C8.38867 16.7133 10.5705 18.8966 13.2619 18.8966Z" fill="#FF0000"></path><path id="rect1-4-7" d="M4.40137 0.75V5.15687H13.2616V5.15996H15.4712C19.1914 5.15996 22.1166 8.08782 22.1166 11.8106V14.0208V22.884H26.5205V14.0208V11.8106C26.5205 5.72176 21.556 0.750045 15.4712 0.750045H13.2616L4.40137 0.75Z" fill="#14317A"></path><path id="rect22-6-2" d="M0 5.15625V27.2902H4.40394H22.1192V22.8833H4.40394V5.15625H0Z" fill="#14317A"></path></g></svg>