<svg xmlns:xlink="http://www.w3.org/1999/xlink" xmlns="http://www.w3.org/2000/svg" width="24" height="24" viewBox="0 0 24 24" fill="none"><path fill-rule="evenodd" clip-rule="evenodd" d="M12 0C18.626 0 24 5.37109 24 12C24 18.6259 18.629 24 12 24C5.37412 24 4.53381e-05 18.6289 4.53381e-05 12C4.53381e-05 11.9195 0.00302887 11.839 0.00302887 11.7586C9.23104 6.86736 21.1655 9.23398 10.5515 21.0969C15.3652 18.7213 19.0582 15.3562 19.9762 12.2534C21.4725 7.18331 17.3682 5.29955 11.9106 5.79732C7.54699 6.19672 3.43075 7.88674 0.113311 10.3398C0.924041 4.49776 5.93447 0 12 0Z" fill="#A4A4A4"></path></svg>