<svg width="1588" height="74" viewBox="0 0 1588 74" fill="none" xmlns="http://www.w3.org/2000/svg">
<rect width="1588" height="74" rx="16" transform="matrix(-1 0 0 1 1588 0)" fill="#14A0DE"/>
<g clip-path="url(#clip0_1_3)">
<path d="M1496.59 22.2326L1496.37 23.7876H1500.97L1499.18 36.4553H1501.73L1503.5 23.7876H1508.08L1508.3 22.2326H1496.59Z" fill="white"/>
<path d="M1513.1 30.9183C1513.98 30.5869 1514.62 30.2191 1515.03 29.8131C1515.43 29.4088 1515.68 28.9081 1515.77 28.3109C1515.89 27.6062 1515.61 26.9798 1514.94 26.4281C1514.26 25.8764 1513.31 25.6014 1512.09 25.6014C1510.53 25.6014 1509.16 26.1113 1507.97 27.1346C1506.78 28.1561 1506.05 29.4598 1505.77 31.0385C1505.51 32.5789 1505.82 33.8991 1506.73 35.0025C1507.63 36.1059 1508.86 36.654 1510.41 36.654C1511.5 36.654 1512.45 36.4646 1513.26 36.0877C1514.07 35.709 1514.78 35.1281 1515.37 34.3452L1514.56 33.7479C1514.18 34.0921 1513.83 34.3725 1513.5 34.5855C1513.17 34.7967 1512.83 34.957 1512.48 35.0626C1512.12 35.17 1511.74 35.2228 1511.31 35.2228C1510.2 35.2228 1509.38 34.8914 1508.86 34.225C1508.34 33.5622 1508.12 32.7173 1508.18 31.6958C1510.18 31.6958 1511.82 31.4373 1513.11 30.9183H1513.1ZM1509.11 28.8462C1509.46 28.3036 1509.88 27.8702 1510.36 27.5516C1510.85 27.2329 1511.35 27.0745 1511.87 27.0745C1512.41 27.0745 1512.86 27.2129 1513.21 27.4915C1513.56 27.7701 1513.69 28.1288 1513.6 28.5676C1513.55 28.8862 1513.38 29.1721 1513.1 29.4216C1512.82 29.6747 1512.47 29.875 1512.05 30.0188C1511.62 30.1663 1511.19 30.2847 1510.76 30.3793C1510.33 30.4722 1509.88 30.5378 1509.4 30.5778C1509.03 30.6179 1508.67 30.6379 1508.34 30.6379C1508.5 29.9879 1508.76 29.3906 1509.11 28.8444V28.8462Z" fill="white"/>
<path d="M1523.91 34.8696C1523.42 35.1026 1522.9 35.2192 1522.34 35.2192C1521.59 35.2192 1520.96 35.0171 1520.45 34.611C1519.94 34.2068 1519.6 33.7024 1519.43 33.0979C1519.25 32.4934 1519.21 31.8251 1519.32 31.0968C1519.48 29.9551 1519.93 28.9919 1520.69 28.2071C1521.45 27.4241 1522.37 27.0326 1523.48 27.0326C1524.04 27.0326 1524.53 27.1528 1524.96 27.3931C1525.39 27.6299 1525.8 28.0031 1526.19 28.5075L1527.16 27.9103C1526.85 27.1947 1526.34 26.6302 1525.66 26.2187C1524.98 25.8054 1524.14 25.6014 1523.16 25.6014C1522.31 25.6014 1521.51 25.758 1520.76 26.0694C1520.01 26.3807 1519.37 26.7959 1518.83 27.313C1518.29 27.832 1517.84 28.4274 1517.48 29.0975C1517.13 29.7675 1516.9 30.4686 1516.81 31.1969C1516.58 32.7501 1516.93 34.0484 1517.84 35.0917C1518.76 36.1332 1520.02 36.654 1521.63 36.654C1522.61 36.654 1523.5 36.4501 1524.3 36.0367C1525.11 35.6252 1525.77 35.0608 1526.29 34.3452L1525.47 33.7479C1524.91 34.2669 1524.39 34.6401 1523.91 34.8732L1523.91 34.8696Z" fill="white"/>
<path d="M1537.37 26.6353C1536.85 25.9324 1536.03 25.581 1534.93 25.581C1534.53 25.581 1534.15 25.6356 1533.78 25.7503C1533.4 25.8632 1533.05 26.0253 1532.71 26.2383C1532.37 26.4495 1532.06 26.7136 1531.76 27.0249C1531.47 27.3363 1531.21 27.6986 1530.97 28.1102L1531.92 21.3165H1529.45L1527.32 36.4551H1529.79L1530.67 30.2788C1531.13 29.2445 1531.68 28.4452 1532.31 27.8789C1532.94 27.3144 1533.56 27.0304 1534.17 27.0304C1534.51 27.0304 1534.78 27.1269 1535 27.3199C1535.22 27.5129 1535.36 27.7879 1535.44 28.1466C1535.51 28.5053 1535.51 28.9241 1535.45 29.4011L1534.45 36.4533H1536.92L1537.92 29.3028C1538.08 28.2267 1537.9 27.3363 1537.37 26.6334V26.6353Z" fill="white"/>
<path d="M1549.1 26.6368C1548.58 25.9339 1547.77 25.5825 1546.68 25.5825C1545.85 25.5825 1545.08 25.8101 1544.39 26.2671C1543.7 26.726 1543.12 27.3815 1542.64 28.2282L1542.98 25.7992H1540.51L1539.02 36.4566H1541.48L1542.32 30.4605C1542.8 29.3717 1543.36 28.5268 1544 27.9296C1544.65 27.3323 1545.28 27.0337 1545.91 27.0337C1546.41 27.0337 1546.78 27.2467 1547 27.6728C1547.23 28.0971 1547.29 28.6743 1547.18 29.4045L1546.19 36.4566H1548.66L1549.67 29.3061C1549.82 28.23 1549.63 27.3396 1549.1 26.6368Z" fill="white"/>
<path d="M1560.91 27.1824C1560.01 26.1281 1558.77 25.6001 1557.2 25.6001C1555.64 25.6001 1554.23 26.1281 1553.02 27.1824C1551.81 28.2385 1551.1 29.5513 1550.87 31.1173C1550.66 32.6959 1551.01 34.0142 1551.92 35.0722C1552.83 36.1264 1554.07 36.6545 1555.65 36.6545C1557.23 36.6545 1558.6 36.1264 1559.81 35.0722C1561.01 34.0161 1561.72 32.6978 1561.94 31.1173C1562.16 29.5513 1561.81 28.2385 1560.91 27.1824H1560.91ZM1559.43 31.1173C1559.29 32.2334 1558.87 33.1949 1558.17 34.007C1557.47 34.8154 1556.7 35.2215 1555.85 35.2215C1555 35.2215 1554.34 34.8154 1553.87 34.007C1553.4 33.1967 1553.23 32.2334 1553.38 31.1173C1553.54 30.0011 1553.97 29.0433 1554.67 28.2385C1555.38 27.4337 1556.15 27.0331 1556.99 27.0331C1557.84 27.0331 1558.49 27.4355 1558.97 28.2385C1559.44 29.0433 1559.59 30.0011 1559.43 31.1173Z" fill="white"/>
<path d="M1509.8 42.1888C1509.32 41.0653 1508.58 40.1804 1507.58 39.5304C1506.59 38.8803 1505.44 38.5526 1504.15 38.5526C1502.85 38.5526 1501.62 38.8803 1500.43 39.5304C1499.25 40.1804 1498.26 41.0653 1497.47 42.1888C1496.67 43.3123 1496.18 44.5377 1495.99 45.8651C1495.8 47.1925 1495.95 48.418 1496.43 49.5414C1496.91 50.6613 1497.65 51.5498 1498.65 52.1999C1499.65 52.8499 1500.8 53.1759 1502.09 53.1759C1503.37 53.1759 1504.61 52.8499 1505.8 52.1999C1506.99 51.5498 1507.98 50.6613 1508.77 49.5414C1509.56 48.418 1510.05 47.1925 1510.23 45.8651C1510.42 44.5377 1510.27 43.3123 1509.8 42.1888ZM1507.67 45.8651C1507.44 47.5239 1506.84 48.8932 1505.86 49.9675C1504.89 51.0436 1503.7 51.5826 1502.32 51.5826C1500.93 51.5826 1499.9 51.0436 1499.22 49.9675C1498.54 48.8932 1498.32 47.5239 1498.55 45.8651C1498.78 44.2045 1499.39 42.837 1500.36 41.7609C1501.34 40.6866 1502.52 40.1476 1503.92 40.1476C1505.31 40.1476 1506.35 40.6866 1507.02 41.7609C1507.69 42.837 1507.91 44.2045 1507.67 45.8651Z" fill="white"/>
<path d="M1526.61 38.374C1526.34 38.1354 1526.02 37.9515 1525.65 37.8277C1525.28 37.7002 1524.87 37.6365 1524.42 37.6365C1523.46 37.6365 1522.62 37.9278 1521.89 38.5123C1521.15 39.0968 1520.72 39.9199 1520.57 40.9832L1520.37 42.3161H1515.33L1515.51 41.0816C1515.7 39.7268 1516.32 39.0495 1517.38 39.0495C1518.03 39.0495 1518.53 39.3554 1518.88 39.9654L1519.65 39.2498C1519.49 38.7308 1519.17 38.3339 1518.68 38.0553C1518.18 37.7767 1517.59 37.6365 1516.9 37.6365C1515.95 37.6365 1515.1 37.9278 1514.37 38.5123C1513.64 39.0968 1513.2 39.9199 1513.06 40.9832L1512.86 42.3161H1511.5L1511.31 43.7509H1512.66L1511.33 53.1957H1513.79C1513.81 53.1174 1513.82 53.0428 1513.83 52.9736L1515.13 43.7509H1520.17L1518.84 53.1957H1521.31C1521.32 53.1174 1521.33 53.0428 1521.35 52.9736L1522.64 43.7509H1525.21L1525.41 42.3161H1522.84L1523.02 41.0816C1523.2 39.7268 1523.83 39.0495 1524.89 39.0495C1525.54 39.0495 1526.04 39.3554 1526.39 39.9654L1527.16 39.2498C1527.06 38.9056 1526.87 38.6125 1526.6 38.374H1526.61Z" fill="white"/>
<path d="M1455.98 24.8927C1457.49 23.1156 1459.37 22.227 1461.61 22.227C1463.86 22.227 1465.48 23.1156 1466.48 24.8927C1467.47 26.6699 1467.79 28.9095 1467.42 31.6117C1467.02 34.3138 1466.07 36.5535 1464.58 38.3306C1463.09 40.1078 1461.22 40.9964 1458.97 40.9964C1456.72 40.9964 1455.09 40.1078 1454.09 38.3306C1453.08 36.5535 1452.77 34.3138 1453.17 31.6117C1453.54 28.9095 1454.48 26.6699 1455.98 24.8927ZM1457.39 36.3677C1457.71 37.7188 1458.35 38.3944 1459.33 38.3944C1460.31 38.3944 1461.12 37.7625 1461.76 36.4952C1462.4 35.2297 1462.87 33.6019 1463.15 31.6117C1463.46 29.7926 1463.47 28.2067 1463.17 26.8556C1462.87 25.5045 1462.23 24.829 1461.23 24.829C1460.23 24.829 1459.42 25.4626 1458.78 26.7281C1458.14 27.9936 1457.69 29.6215 1457.43 31.6117C1457.09 33.4325 1457.08 35.0167 1457.39 36.3677ZM1479.32 22.4837H1483.24L1461.83 52.9412H1457.9L1479.32 22.4837ZM1482.22 34.4285C1484.47 34.4285 1486.09 35.3171 1487.08 37.0943C1488.08 38.8714 1488.39 41.1111 1488.02 43.8132C1487.76 45.5776 1487.27 47.1545 1486.55 48.5474C1485.82 49.9404 1484.86 51.0639 1483.65 51.9178C1482.44 52.7718 1481.08 53.1979 1479.58 53.1979C1477.33 53.1979 1475.7 52.3093 1474.69 50.5322C1473.68 48.755 1473.38 46.5154 1473.77 43.8132C1474 42.0506 1474.48 40.472 1475.2 39.079C1475.93 37.686 1476.9 36.5626 1478.13 35.7086C1479.35 34.8546 1480.71 34.4285 1482.22 34.4285H1482.22ZM1478 48.5693C1478.31 49.9204 1478.96 50.5959 1479.94 50.5959C1480.92 50.5959 1481.73 49.9641 1482.37 48.6986C1483.01 47.4331 1483.46 45.8052 1483.71 43.815C1484.05 41.996 1484.07 40.41 1483.75 39.059C1483.44 37.7079 1482.8 37.0324 1481.83 37.0324C1481.15 37.0324 1480.55 37.3528 1480.02 37.9919C1479.5 38.6311 1479.08 39.4432 1478.76 40.4228C1478.45 41.4042 1478.21 42.535 1478.04 43.8132C1477.7 45.6341 1477.68 47.2182 1478 48.5693Z" fill="white"/>
</g>
<defs>
<clipPath id="clip0_1_3">
<rect width="109" height="31.8795" fill="white" transform="translate(1453 21.3161)"/>
</clipPath>
</defs>
</svg>
