<svg xmlns:xlink="http://www.w3.org/1999/xlink" width="20" height="20" viewBox="0 0 20 20" fill="none" xmlns="http://www.w3.org/2000/svg"><g id="Deal of the day" fill="none"><path id="Vector" d="M8.96191 2.88233C9.5601 2.37256 10.4399 2.37256 11.0381 2.88233L12.0556 3.74941C12.3119 3.96786 12.6306 4.09987 12.9663 4.12666L14.2989 4.23301C15.0824 4.29552 15.7045 4.91764 15.767 5.70109L15.8733 7.03367C15.9001 7.36939 16.0321 7.6881 16.2506 7.94444L17.1177 8.96191C17.6274 9.5601 17.6274 10.4399 17.1177 11.0381L16.2506 12.0556C16.0321 12.3119 15.9001 12.6306 15.8733 12.9663L15.767 14.2989C15.7045 15.0824 15.0824 15.7045 14.2989 15.767L12.9663 15.8733C12.6306 15.9001 12.3119 16.0321 12.0556 16.2506L11.0381 17.1177C10.4399 17.6274 9.5601 17.6274 8.96191 17.1177L7.94444 16.2506C7.6881 16.0321 7.36939 15.9001 7.03367 15.8733L5.70109 15.767C4.91764 15.7045 4.29552 15.0824 4.23301 14.2989L4.12666 12.9663C4.09987 12.6306 3.96786 12.3119 3.74941 12.0556L2.88233 11.0381C2.37256 10.4399 2.37256 9.5601 2.88233 8.96191L3.74941 7.94444C3.96786 7.6881 4.09987 7.36939 4.12666 7.03367L4.23301 5.70109C4.29552 4.91764 4.91764 4.29552 5.70109 4.23301L7.03367 4.12666C7.36939 4.09987 7.6881 3.96786 7.94444 3.74941L8.96191 2.88233Z" stroke="#FFFFFF" stroke-width="2px" stroke-linecap="round" stroke-linejoin="round" fill="none"></path><path id="Vector_2" d="M11.6667 8.33325L8.33337 11.6666" stroke="#FFFFFF" stroke-width="2px" stroke-linecap="round" stroke-linejoin="round" fill="none"></path><path id="Vector_3" d="M8.33337 8.33325H8.41671V8.41659H8.33337V8.33325Z" stroke="#FFFFFF" stroke-width="2px" stroke-linecap="round" stroke-linejoin="round" fill="none"></path><path id="Vector_4" d="M11.6666 11.6667H11.75V11.7501H11.6666V11.6667Z" stroke="#FFFFFF" stroke-width="2px" stroke-linecap="round" stroke-linejoin="round" fill="none"></path></g></svg>