<svg xmlns:xlink="http://www.w3.org/1999/xlink" xmlns="http://www.w3.org/2000/svg" width="26" height="26" viewBox="0 0 26 26" fill="none">
<path d="M13.2774 25.8127C12.8468 25.8127 12.4142 25.6739 12.0547 25.3964L9.76321 23.6256L6.84952 23.7233C5.93294 23.7507 5.12303 23.1702 4.87018 22.3004L4.06817 19.5348L1.65227 17.9184C0.895699 17.4122 0.58359 16.4662 0.895702 15.616L1.88932 12.911L0.895702 10.1981C0.58359 9.34792 0.893723 8.40194 1.65227 7.89572L4.06422 6.28716L4.87018 3.51567C5.12105 2.64592 5.93689 2.06152 6.84952 2.09279L9.75729 2.19247L12.0566 0.417776C12.7776 -0.139259 13.7831 -0.139259 14.5022 0.417776L16.7936 2.18856L19.7073 2.09083C20.6259 2.05956 21.4338 2.64396 21.6866 3.51372L22.4886 6.27935L24.9046 7.89572C25.6611 8.40194 25.9732 9.34792 25.6611 10.1981L24.6675 12.9032L25.6611 15.616C25.9732 16.4662 25.6631 17.4122 24.9046 17.9184L22.4926 19.527L21.6847 22.2985C21.4318 23.1682 20.618 23.7487 19.7053 23.7214L16.7995 23.6217L14.5002 25.3964C14.1407 25.672 13.7081 25.8127 13.2774 25.8127ZM9.75531 21.6652C10.1978 21.6652 10.6284 21.8118 10.9781 22.0815L13.2695 23.8523L15.5748 22.0815C15.9422 21.7981 16.4045 21.6496 16.8667 21.6652L19.7725 21.7649L20.5864 18.9915C20.7148 18.5478 20.9992 18.1627 21.3844 17.9047L23.7964 16.2962L22.8067 13.5794C22.6467 13.1455 22.6467 12.6686 22.8067 12.2347L23.8003 9.53164L21.3844 7.9094C20.9972 7.65141 20.7148 7.26442 20.5864 6.82074L19.7843 4.05512L16.8667 4.14698C16.3985 4.16261 15.9422 4.01603 15.5748 3.73067L13.2834 1.95988C13.2794 1.95598 13.2735 1.95598 13.2695 1.95988L10.9781 3.73067C10.6107 4.01407 10.1504 4.16261 9.68617 4.14698L6.78038 4.0473L5.96652 6.82074C5.83812 7.26442 5.55366 7.65141 5.16846 7.9094L2.75652 9.51796L3.74618 12.2347C3.90619 12.6686 3.90619 13.1455 3.74618 13.5794L2.75256 16.2845L5.16846 17.9067C5.55564 18.1647 5.83812 18.5517 5.96652 18.9934L6.76853 21.759L9.68617 21.6672C9.7079 21.6672 9.7316 21.6652 9.75531 21.6652Z" fill="#ffffff"/>
<path d="M8.99935 18.0753C8.77912 18.0753 8.5589 17.991 8.39029 17.8241C8.0548 17.4886 8.0548 16.9432 8.39029 16.6077L16.9481 8.04996C17.2835 7.71447 17.8289 7.71447 18.1644 8.04996C18.4999 8.38546 18.4999 8.93086 18.1644 9.26636L9.60668 17.8241C9.43979 17.9927 9.21957 18.0753 8.99935 18.0753Z" fill="#ffffff"/>
<path d="M10.727 12.0259C9.31968 12.0259 8.17383 10.88 8.17383 9.47265C8.17383 8.06528 9.31968 6.91943 10.727 6.91943C12.1344 6.91943 13.2803 8.06528 13.2803 9.47265C13.2803 10.88 12.1344 12.0259 10.727 12.0259ZM10.727 8.64165C10.2677 8.64165 9.89433 9.015 9.89433 9.47437C9.89433 9.93375 10.2677 10.3071 10.727 10.3071C11.1864 10.3071 11.5598 9.93375 11.5598 9.47437C11.5598 9.015 11.1864 8.64165 10.727 8.64165Z" fill="#ffffff"/>
<path d="M15.8423 18.8906C14.4349 18.8906 13.2891 17.7448 13.2891 16.3374C13.2891 14.93 14.4349 13.7842 15.8423 13.7842C17.2496 13.7842 18.3955 14.93 18.3955 16.3374C18.3955 17.7448 17.2496 18.8906 15.8423 18.8906ZM15.8423 15.5064C15.3829 15.5064 15.0096 15.8797 15.0096 16.3391C15.0096 16.7985 15.3829 17.1718 15.8423 17.1718C16.3017 17.1718 16.675 16.7985 16.675 16.3391C16.675 15.8797 16.2999 15.5064 15.8423 15.5064Z" fill="#ffffff"/>
</svg>