<svg xmlns:xlink="http://www.w3.org/1999/xlink" width="24" height="24" viewBox="0 0 24 24" fill="none" xmlns="http://www.w3.org/2000/svg"><g clip-path="url(#clip0_10152_59209)" fill="none"><path d="M20.9941 5.46872C20.973 4.04259 19.8813 3.00147 18.4576 3.00098C14.1532 3.00049 9.84826 3.00098 5.54335 3C5.35281 3 5.16423 3.01277 4.97859 3.055C3.82698 3.31675 3.00244 4.34903 3.00146 5.53895C2.999 8.45358 2.99998 11.3682 3.00195 14.2828C3.00244 14.4351 3.01766 14.5883 3.03878 14.7396C3.20084 15.9211 4.21887 16.8842 5.39111 16.9013C7.04413 16.9259 8.69764 16.9107 10.3511 16.9063C10.7116 16.9053 11.0539 16.6273 11.1521 16.2836C11.243 15.9678 11.0878 15.6088 10.771 15.4035C10.6227 15.3073 10.4611 15.2704 10.2839 15.2709C8.69813 15.2734 7.1119 15.2709 5.52616 15.2734C5.14507 15.2739 4.89462 15.0833 4.72617 14.7602C4.64121 14.5971 4.63679 14.4199 4.63679 14.2416C4.63728 12.4658 4.63925 10.69 4.63336 8.91471C4.63286 8.76297 4.66675 8.72466 4.82095 8.72515C7.20913 8.73055 9.59732 8.72908 11.9855 8.72908C14.3737 8.72908 16.7741 8.73105 19.1682 8.72466C19.3357 8.72417 19.3666 8.77033 19.3632 8.92552C19.3524 9.39058 19.3563 9.85614 19.3602 10.3212C19.3637 10.7681 19.7531 11.1782 20.1725 11.1845C20.5875 11.1914 20.998 10.7823 20.999 10.3364C21.0034 8.71386 21.0177 7.09129 20.9941 5.46872ZM19.1883 7.09571C16.7874 7.09178 14.3864 7.09276 11.9855 7.09276C9.58455 7.09276 7.22043 7.09129 4.83814 7.0962C4.68345 7.09669 4.62746 7.07017 4.63286 6.89976C4.64711 6.46564 4.64956 6.03004 4.63434 5.59542C4.61813 5.12201 4.99284 4.63092 5.60179 4.63337C9.86447 4.65007 14.1272 4.64221 18.3903 4.64221C19.0022 4.64221 19.3568 4.99482 19.3588 5.60672C19.3602 6.04772 19.3519 6.48872 19.3632 6.92972C19.3671 7.07557 19.3185 7.09571 19.1883 7.09571ZM21.6993 16.9102C21.44 18.2784 20.7422 19.3656 19.5851 20.1357C18.6383 20.7657 17.5884 21.0378 16.4451 20.9219C15.3524 20.8114 14.3928 20.395 13.6022 19.6402C12.426 18.5175 11.902 17.1341 12.0886 15.5091C12.2369 14.2205 12.8341 13.1587 13.833 12.3406C14.9198 11.4507 16.1775 11.0917 17.5727 11.2813C18.822 11.4512 19.8459 12.0459 20.6557 13.0085C21.246 13.7112 21.5844 14.5274 21.7273 15.4295C21.7376 15.4934 21.7111 15.5837 21.8162 15.6019C21.7455 15.5027 21.7646 15.3824 21.7474 15.2729C21.3285 12.5856 18.5981 10.7082 15.9334 11.2788C13.3114 11.8401 11.6412 14.2868 12.0749 16.9318C12.4427 19.1736 14.439 20.9214 16.7191 20.9971C19.0017 21.0727 21.0245 19.5896 21.6355 17.387C21.7076 17.1263 21.7563 16.8586 21.8162 16.5939C21.6718 16.6592 21.7194 16.8026 21.6993 16.9102Z" fill="#E10A0A"></path><path d="M19.357 16.0382C19.3732 16.5411 19.0992 16.8716 18.6145 16.9021C18.3159 16.9212 18.0148 16.906 17.7148 16.906V16.9094C17.4579 16.9094 17.2011 16.9119 16.9438 16.9089C16.3972 16.9026 16.0903 16.5976 16.0873 16.0544C16.0849 15.528 16.0834 15.0015 16.0878 14.4756C16.0932 13.8494 16.6196 13.4831 17.2119 13.6879C17.5341 13.7993 17.7172 14.0665 17.7271 14.454C17.733 14.6868 17.733 14.9195 17.7266 15.1518C17.7236 15.2466 17.7492 15.278 17.8474 15.2756C18.0861 15.2682 18.3252 15.2697 18.5634 15.2741C19.0255 15.2824 19.3428 15.5904 19.357 16.0382Z" fill="#E10A0A"></path><path d="M21.7477 15.2733C21.3288 12.5861 18.5984 10.7086 15.9337 11.2793C13.3118 11.8406 11.6416 14.2872 12.0752 16.9322C12.443 19.1741 14.4393 20.9219 16.7194 20.9975C19.002 21.0731 21.0249 19.59 21.6358 17.3875C21.708 17.1267 21.7566 16.8591 21.8165 16.5944V15.6024C21.7458 15.5032 21.7649 15.3828 21.7477 15.2733ZM16.9046 19.3592C15.1052 19.3573 13.6349 17.8884 13.6344 16.092C13.6344 14.2921 15.1229 12.8076 16.9198 12.8164C18.7172 12.8252 20.1831 14.302 20.1777 16.0984C20.1718 17.9012 18.7069 19.3612 16.9046 19.3592Z" fill="#E10A0A"></path><path d="M20.9941 5.46872C20.973 4.04259 19.8813 3.00147 18.4576 3.00098C14.1532 3.00049 9.84826 3.00098 5.54335 3C5.35281 3 5.16423 3.01277 4.97859 3.055C3.82698 3.31675 3.00244 4.34903 3.00146 5.53895C2.999 8.45358 2.99998 11.3682 3.00195 14.2828C3.00244 14.4351 3.01766 14.5883 3.03878 14.7396C3.20084 15.9211 4.21887 16.8842 5.39111 16.9013C7.04413 16.9259 8.69764 16.9107 10.3511 16.9063C10.7116 16.9053 11.0539 16.6273 11.1521 16.2836C11.243 15.9678 11.0878 15.6088 10.771 15.4035C10.6227 15.3073 10.4611 15.2704 10.2839 15.2709C8.69813 15.2734 7.1119 15.2709 5.52616 15.2734C5.14507 15.2739 4.89462 15.0833 4.72617 14.7602C4.64121 14.5971 4.63679 14.4199 4.63679 14.2416C4.63728 12.4658 4.63925 10.69 4.63336 8.91471C4.63286 8.76297 4.66675 8.72466 4.82095 8.72515C7.20913 8.73055 9.59732 8.72908 11.9855 8.72908C14.3737 8.72908 16.7741 8.73105 19.1682 8.72466C19.3357 8.72417 19.3666 8.77033 19.3632 8.92552C19.3524 9.39058 19.3563 9.85614 19.3602 10.3212C19.3637 10.7681 19.7531 11.1782 20.1725 11.1845C20.5875 11.1914 20.998 10.7823 20.999 10.3364C21.0034 8.71386 21.0177 7.09129 20.9941 5.46872ZM19.1883 7.09571C16.7874 7.09178 14.3864 7.09276 11.9855 7.09276C9.58455 7.09276 7.22043 7.09129 4.83814 7.0962C4.68345 7.09669 4.62746 7.07017 4.63286 6.89976C4.64711 6.46564 4.64956 6.03004 4.63434 5.59542C4.61813 5.12201 4.99284 4.63092 5.60179 4.63337C9.86447 4.65007 14.1272 4.64221 18.3903 4.64221C19.0022 4.64221 19.3568 4.99482 19.3588 5.60672C19.3602 6.04772 19.3519 6.48872 19.3632 6.92972C19.3671 7.07557 19.3185 7.09571 19.1883 7.09571Z" fill="#E10A0A"></path><path d="M19.357 16.0382C19.3732 16.5411 19.0992 16.8716 18.6145 16.9021C18.3159 16.9212 18.0148 16.906 17.7148 16.906V16.9094C17.4579 16.9094 17.2011 16.9119 16.9438 16.9089C16.3972 16.9026 16.0903 16.5976 16.0873 16.0544C16.0849 15.528 16.0834 15.0015 16.0878 14.4756C16.0932 13.8494 16.6196 13.4831 17.2119 13.6879C17.5341 13.7993 17.7172 14.0665 17.7271 14.454C17.733 14.6868 17.733 14.9195 17.7266 15.1518C17.7236 15.2466 17.7492 15.278 17.8474 15.2756C18.0861 15.2682 18.3252 15.2697 18.5634 15.2741C19.0255 15.2824 19.3428 15.5904 19.357 16.0382Z" fill="#E10A0A"></path><path d="M19.357 16.0382C19.3732 16.5411 19.0992 16.8716 18.6145 16.9021C18.3159 16.9212 18.0148 16.906 17.7148 16.906V16.9094C17.4579 16.9094 17.2011 16.9119 16.9438 16.9089C16.3972 16.9026 16.0903 16.5976 16.0873 16.0544C16.0849 15.528 16.0834 15.0015 16.0878 14.4756C16.0932 13.8494 16.6196 13.4831 17.2119 13.6879C17.5341 13.7993 17.7172 14.0665 17.7271 14.454C17.733 14.6868 17.733 14.9195 17.7266 15.1518C17.7236 15.2466 17.7492 15.278 17.8474 15.2756C18.0861 15.2682 18.3252 15.2697 18.5634 15.2741C19.0255 15.2824 19.3428 15.5904 19.357 16.0382Z" fill="#E10A0A"></path></g><defs><clipPath id="clip0_10152_59209"><rect width="18.8162" height="18" fill="currentColor" transform="translate(3 3)"></rect></clipPath></defs></svg>